<svg xmlns="http://www.w3.org/2000/svg" width="1200" height="700" viewBox="0 0 1200 700" role="img" aria-label="sharehere dashboard mock screenshot">
  <defs>
    <linearGradient id="bg" x1="0" x2="1" y1="0" y2="1">
      <stop offset="0" stop-color="#f8fafc"/>
      <stop offset="1" stop-color="#e2f5f3"/>
    </linearGradient>
  </defs>
  <rect width="1200" height="700" fill="url(#bg)"/>
  <rect x="30" y="24" width="1140" height="64" rx="14" fill="#ffffff" stroke="#cbd5e1"/>
  <text x="60" y="64" font-family="Segoe UI, sans-serif" font-size="30" fill="#0f172a">sharehere</text>
  <rect x="30" y="110" width="760" height="560" rx="16" fill="#ffffff" stroke="#cbd5e1"/>
  <rect x="810" y="110" width="360" height="560" rx="16" fill="#ffffff" stroke="#cbd5e1"/>
  <text x="60" y="160" font-family="Segoe UI, sans-serif" font-size="20" fill="#334155">Directory Browser</text>
  <text x="840" y="160" font-family="Segoe UI, sans-serif" font-size="20" fill="#334155">Preview & Transfer</text>
  <g fill="#f1f5f9" stroke="#e2e8f0">
    <rect x="60" y="190" width="700" height="52" rx="10"/>
    <rect x="60" y="252" width="700" height="52" rx="10"/>
    <rect x="60" y="314" width="700" height="52" rx="10"/>
    <rect x="60" y="376" width="700" height="52" rx="10"/>
  </g>
  <g fill="#ecfeff" stroke="#99f6e4">
    <rect x="840" y="200" width="300" height="120" rx="12"/>
    <rect x="840" y="340" width="300" height="300" rx="12"/>
  </g>
  <rect x="1020" y="42" width="120" height="30" rx="8" fill="#0f766e"/>
  <text x="1055" y="62" font-family="Segoe UI, sans-serif" font-size="14" fill="#ffffff">Logout</text>
</svg>
